<?xml version="1.0" encoding="iso-8859-1"?>
<!-- Generator: Adobe Illustrator 19.1.1, SVG Export Plug-In . SVG Version: 6.00 Build 0)  -->
<svg version="1.1"  xmlns="http://www.w3.org/2000/svg" xmlns:xlink="http://www.w3.org/1999/xlink" x="0px" y="0px"
	 viewBox="0 0 40 40" style="enable-background:new 0 0 40 40;" xml:space="preserve">
<g>
	<g>
		<polygon style="fill:#FFEEA3;" points="20,31.99 8.301,38.088 10.496,25.092 1.069,15.861 14.125,13.93 20,2.122 25.878,13.93 
			38.931,15.861 29.507,25.092 31.7,38.091 		"/>
		<path style="fill:#BA9B48;" d="M20,3.245l5.313,10.675l0.233,0.467l0.516,0.076l11.799,1.746l-8.518,8.344l-0.373,0.366
			l0.087,0.515l1.982,11.75l-10.577-5.517L20,31.425l-0.462,0.241L8.961,37.181l1.985-11.747l0.087-0.515l-0.373-0.366l-8.521-8.344
			l11.802-1.746l0.516-0.076l0.233-0.467L20,3.245 M20,1l-6.206,12.474L0,15.514l9.96,9.753l-2.32,13.73L20,32.553L32.36,39
			l-2.317-13.733L40,15.514l-13.791-2.04L20,1L20,1z"/>
	</g>
</g>
</svg>
