<?xml version="1.0" encoding="iso-8859-1"?>
<!-- Generator: Adobe Illustrator 19.1.1, SVG Export Plug-In . SVG Version: 6.00 Build 0)  -->
<svg version="1.1" id="Layer_1" xmlns="http://www.w3.org/2000/svg" xmlns:xlink="http://www.w3.org/1999/xlink" x="0px" y="0px"
	 viewBox="0 0 40 40" style="enable-background:new 0 0 40 40;" xml:space="preserve">
<g>
	<path style="fill:#FFEEA3;" d="M20,32.004L8.299,38.112l2.194-13.016l-9.425-9.24l13.056-1.936L20,2.102l5.876,11.819l13.056,1.936
		l-9.424,9.241l2.193,13.015L20,32.004z M27.74,32.661l-1.451-8.609l6.233-6.111l-8.637-1.28L20,8.842l-3.886,7.818l-8.636,1.279
		l6.234,6.11l-1.452,8.609L20,28.62L27.74,32.661z"/>
	<path style="fill:#BA9B48;" d="M20,3.225l5.311,10.685l0.232,0.468l0.516,0.077l11.804,1.749l-8.52,8.354l-0.373,0.365l0.087,0.515
		l1.983,11.766l-10.578-5.522L20,31.44l-0.463,0.242L8.959,37.204l1.984-11.767l0.087-0.515l-0.373-0.366l-8.521-8.353l11.803-1.749
		l0.516-0.077l0.232-0.468L20,3.225 M15.783,16.203l-1.549,0.23L8.4,17.297l-1.99,0.295l1.437,1.408l4.211,4.128l1.119,1.096
		l-0.26,1.545l-0.981,5.815L11.6,33.569l1.783-0.931l5.228-2.729L20,29.184l1.388,0.725l5.229,2.73l1.783,0.931l-0.334-1.984
		l-0.98-5.815l-0.26-1.544l1.118-1.096l4.211-4.129l1.436-1.408l-1.99-0.295l-5.834-0.865l-1.549-0.23l-0.697-1.403L20.895,9.52
		L20,7.719L19.105,9.52l-2.625,5.281L15.783,16.203 M20,0.979l-6.207,12.487L0,15.509l9.957,9.761L7.639,39.021L20,32.568
		l12.361,6.453l-2.317-13.749L40,15.509l-13.793-2.044L20,0.979L20,0.979z M12.921,31.751l0.981-5.815l0.347-2.059l-1.491-1.462
		l-4.211-4.128l5.833-0.864l2.066-0.306l0.93-1.87L20,9.965l2.625,5.281l0.93,1.87l2.066,0.306l5.834,0.865l-4.211,4.129
		l-1.491,1.462l0.347,2.059l0.98,5.815l-5.229-2.73L20,28.056l-1.851,0.966L12.921,31.751L12.921,31.751z"/>
</g>
</svg>
